{"title":"The Hangover Part II 2011 DVDrip.Xvid Stumpie1971","uid":6755080,"size":1573349376,"categoryP":"video","categoryS":"movies","magnet":"?xt=urn:btih:23c2110f8561e38c1cc5d139459fe5361002edcf&amp;dn=The+Hangover+Part+II+2011+DVDrip.Xvid+Stumpie1971&amp;tr=udp%3A%2F%2Ftracker.openbittorrent.com%3A80&amp;tr=udp%3A%2F%2Fopen.demonii.com%3A1337&amp;tr=udp%3A%2F%2Ftracker.coppersurfer.tk%3A6969&amp;tr=udp%3A%2F%2Fexodus.desync.com%3A6969","seeders":0,"leechers":0,"uploader":"stumpie1971","files":-1,"time":1319015529,"description":" &lt;a href=&quot; http://www.hotimg.com/direct/a55CgXf.jpg&quot; rel=&quot;nofollow&quot; target=&quot;_NEW&quot;&gt; http://www.hotimg.com/direct/a55CgXf.jpg&lt;/a&gt;\n\nScreens:\n  &lt;a href=&quot;\nhttp://www.hotimg.com/direct/u9e3sgZ.jpg&quot; rel=&quot;nofollow&quot; target=&quot;_NEW&quot;&gt;\nhttp://www.hotimg.com/direct/u9e3sgZ.jpg&lt;/a&gt;\n  &lt;a href=&quot;\nhttp://www.hotimg.com/direct/YJ53QSZ.jpg&quot; rel=&quot;nofollow&quot; target=&quot;_NEW&quot;&gt;\nhttp://www.hotimg.com/direct/YJ53QSZ.jpg&lt;/a&gt;\n  &lt;a href=&quot;\nhttp://www.hotimg.com/direct/UFczJgx.jpg&quot; rel=&quot;nofollow&quot; target=&quot;_NEW&quot;&gt;\nhttp://www.hotimg.com/direct/UFczJgx.jpg&lt;/a&gt;\n  &lt;a href=&quot;\nhttp://www.hotimg.com/direct/WtFVkK7.jpg&quot; rel=&quot;nofollow&quot; target=&quot;_NEW&quot;&gt;\nhttp://www.hotimg.com/direct/WtFVkK7.jpg&lt;/a&gt;\n\nAlternative:\n  &lt;a href=&quot;\nhttp://www.postimg.com/image/50000/photo-49648.jpg&quot; rel=&quot;nofollow&quot; target=&quot;_NEW&quot;&gt;\nhttp://www.postimg.com/image/50000/photo-49648.jpg&lt;/a&gt;\n  &lt;a href=&quot;\nhttp://www.postimg.com/image/50000/photo-49649.jpg&quot; rel=&quot;nofollow&quot; target=&quot;_NEW&quot;&gt;\nhttp://www.postimg.com/image/50000/photo-49649.jpg&lt;/a&gt;\n  &lt;a href=&quot;\nhttp://www.postimg.com/image/50000/photo-49650.jpg&quot; rel=&quot;nofollow&quot; target=&quot;_NEW&quot;&gt;\nhttp://www.postimg.com/image/50000/photo-49650.jpg&lt;/a&gt;\n  &lt;a href=&quot;\nhttp://www.postimg.com/image/50000/photo-49651.jpg&quot; rel=&quot;nofollow&quot; target=&quot;_NEW&quot;&gt;\nhttp://www.postimg.com/image/50000/photo-49651.jpg&lt;/a&gt;\n\nScreenCaps:\n  &lt;a href=&quot;\nhttp://www.postimg.com/image/50000/photo-49652.jpg&quot; rel=&quot;nofollow&quot; target=&quot;_NEW&quot;&gt;\nhttp://www.postimg.com/image/50000/photo-49652.jpg&lt;/a&gt;\n\nThe Hangover 2 (2011) DVDRip XviD-MAX\nFormat                           : AVI\nFormat/Info                      : Audio Video Interleave\nFormat profile                   : OpenDML\nFile size                        : 1.47 GiB\nDuration                         : 1h 37mn\nOverall bit rate                 : 2 151 Kbps\nWriting application              : VirtualDubMod 1.5.10.2 (build 2542/release)\nWriting library                  : VirtualDubMod build 2542/release\nOriginal source form             : MAX TORRENTZ\nCopyright                        : SIGISMUNT\n\nVideo\nID                               : 0\nFormat                           : MPEG-4 Visual\nFormat profile                   : AdvancedSimple@L5\nFormat settings, BVOP            : Yes\nFormat settings, QPel            : No\nFormat settings, GMC             : No warppoints\nFormat settings, Matrix          : Custom\nCodec ID                         : XVID\nCodec ID/Hint                    : XviD\nDuration                         : 1h 37mn\nBit rate                         : 1 950 Kbps\nWidth                            : 672 pixels\nHeight                           : 288 pixels\nDisplay aspect ratio             : 2.35:1\nFrame rate                       : 29.970 fps\nResolution                       : 24 bits\nColorimetry                      : 4:2:0\nScan type                        : Progressive\nBits/(Pixel*Frame)               : 0.336\nStream size                      : 1.33 GiB (91%)\nWriting library                  : XviD 1.2.1 (UTC 2008-12-04)\n\nAudio\nID                               : 1\nFormat                           : MPEG Audio\nFormat version                   : Version 1\nFormat profile                   : Layer 3\nCodec ID                         : 55\nCodec ID/Hint                    : MP3\nDuration                         : 1h 37mn\nBit rate mode                    : Constant\nBit rate                         : 192 Kbps\nChannel(s)                       : 2 channels\nSampling rate                    : 48.0 KHz\nResolution                       : 16 bits\nStream size                      : 134 MiB (9%)\nAlignment                        : Aligned on interleaves\nInterleave, duration             : 24 ms (0.72 video frame)\nInterleave, preload duration     : 192 ms\n  &lt;a href=&quot;\nhttp://www.imdb.com/title/tt1411697/&quot; rel=&quot;nofollow&quot; target=&quot;_NEW&quot;&gt;\nhttp://www.imdb.com/title/tt1411697/&lt;/a&gt;\n\n\nPLEASE SEED &amp; ENJOY - MANY THANKS Stumpie1971","torrent":{"xt":"urn:btih:23c2110f8561e38c1cc5d139459fe5361002edcf","amp;dn":"The+Hangover+Part+II+2011+DVDrip.Xvid+Stumpie1971","amp;tr":["udp%3A%2F%2Ftracker.openbittorrent.com%3A80","udp%3A%2F%2Fopen.demonii.com%3A1337","udp%3A%2F%2Ftracker.coppersurfer.tk%3A6969","udp%3A%2F%2Fexodus.desync.com%3A6969"],"infoHash":"23c2110f8561e38c1cc5d139459fe5361002edcf","infoHashBuffer":{"type":"Buffer","data":[35,194,17,15,133,97,227,140,28,197,209,57,69,159,229,54,16,2,237,207]},"announce":[],"urlList":[]}}